<svg xmlns="http://www.w3.org/2000/svg" width="900" height="600" viewBox="0 0 900 600">

  <!-- CLIMATE CONNECT LOGO (Option 2) -->
  <g transform="translate(40,40)">
    <circle cx="28" cy="28" r="22" fill="#2EA36F"></circle>
    <circle cx="58" cy="28" r="22" fill="#1190A0"></circle>
    <rect x="28" y="24" width="30" height="8" fill="#FFFFFF" opacity="0.95"></rect>
  </g>

  <!-- SUN -->
  <g transform="translate(650,110)">
    <circle cx="0" cy="0" r="70" fill="#FFD166" opacity="0.98"></circle>
    <circle cx="0" cy="0" r="110" fill="#FFD166" opacity="0.15"></circle>
  </g>

  <!-- JOURNAL -->
  <g transform="translate(300,160)">
    <rect x="0" y="0" width="420" height="280" rx="18" fill="#FFFFFF" stroke="#DFF3EB" stroke-width="3"></rect>
    <path d="M24 24 L24 256" stroke="#F1F8F5" stroke-width="4"></path>

    <!-- page lines -->
    <g transform="translate(40,32)" fill="none" stroke="#E6F2ED" stroke-width="3">
      <path d="M0 0 H340"></path>
      <path d="M0 48 H340"></path>
      <path d="M0 96 H340"></path>
      <path d="M0 144 H340"></path>
      <path d="M0 192 H340"></path>
    </g>

    <!-- leaf bookmark -->
    <g transform="translate(310,24)">
      <path d="M18 0 C36 20 36 60 18 80 C0 60 0 20 18 0Z" fill="#34C07A"></path>
      <rect x="14" y="84" width="20" height="20" rx="4" fill="#DFF8EE"></rect>
    </g>
  </g>

  <!-- SPROUT -->
  <g transform="translate(380,210)">
    <path d="M32 120 C40 85 68 80 76 55" stroke="#2EA36F" stroke-width="6" stroke-linecap="round" fill="none"></path>
    <path d="M76 55 C65 45 55 40 44 48 C33 56 30 72 36 85 C42 98 60 108 76 108" fill="#34C07A" opacity="0.95"></path>
    <path d="M48 52 C56 44 66 42 74 48" stroke="#0E6B4D" stroke-width="2" fill="none" opacity="0.6"></path>
  </g>

  <!-- SMALL GLOBE -->
  <g transform="translate(330,420) scale(1.2)">
    <circle cx="44" cy="32" r="32" fill="#E6FBF2" stroke="#BCEEDA" stroke-width="3"></circle>
    <path d="M44 6 C60 12 70 30 66 46 C62 62 46 76 30 70 C14 64 6 46 10 28 C14 10 28 2 44 6Z" fill="#C8F7DF"></path>
    <path d="M24 32 C34 28 60 28 66 32" stroke="#1B6A4E" stroke-width="2" stroke-linecap="round" fill="none"></path>
  </g>

</svg>
