<!-- green-journal-hero.svg -->
<svg xmlns="http://www.w3.org/2000/svg" viewBox="0 0 1200 420" preserveAspectRatio="xMidYMid slice" width="1200" height="420" role="img" aria-label="Green Journal homepage banner">
  <g transform="translate(40,40)">
    <circle cx="20" cy="20" r="14" fill="#2EA36F"/>
    <circle cx="34" cy="20" r="14" fill="#1190A0"/>
    <rect x="20" y="18" width="14" height="4" fill="#FFFFFF" opacity="0.95"/>
  </g>

  <defs>
    <linearGradient id="skyG" x1="0" x2="0" y1="0" y2="1">
      <stop offset="0" stop-color="#E8F7FF"></stop>
      <stop offset="1" stop-color="#F6FFF8"></stop>
    </linearGradient>
    <linearGradient id="leafG" x1="0" x2="1">
      <stop offset="0" stop-color="#34C07A"></stop>
      <stop offset="1" stop-color="#1190A0"></stop>
    </linearGradient>
    <linearGradient id="sunG" x1="0" x2="1">
      <stop offset="0" stop-color="#FFD166"></stop>
      <stop offset="1" stop-color="#FFB66B"></stop>
    </linearGradient>
    <style>
      .hero-head { font: 700 42px/1.05 "Segoe UI", Roboto, Arial; fill: #0E3B3A; }
      .hero-sub { font: 400 18px/1.4 "Segoe UI", Roboto, Arial; fill:#274A52; opacity:0.9; }
      .btn-text { font:600 15px/1 "Segoe UI", Roboto, Arial; fill:#fff; }
    </style>
  </defs>

  <!-- background -->
  <rect width="1200" height="420" fill="none"></rect>

  <!-- sun -->
  <g transform="translate(980,80)">
    <circle cx="0" cy="0" r="54" fill="url(#sunG)" opacity="0.98"></circle>
    <circle cx="0" cy="0" r="86" fill="url(#sunG)" opacity="0.12"></circle>
  </g>

  <!-- subtle clouds -->
  

  <!-- left hero content block (text) -->
  <g transform="translate(72,80)">
    
  </g>

  <!-- right hero illustration: stylized journal + plant + globe -->
  <g transform="translate(720,120)">
    <!-- open journal -->
    <g transform="translate(0,0)">
      <rect width="1200" height="420" fill="none" stroke="#DFF3EB" stroke-width="2.4"></rect>
      <path d="M18 18 L18 182" stroke="#F1F8F5" stroke-width="3"></path>
      <!-- left page lines -->
      <g transform="translate(28,24)" fill="none" stroke="#E6F2ED" stroke-width="2">
        <path d="M0 0 H240"></path>
        <path d="M0 36 H240"></path>
        <path d="M0 72 H240"></path>
        <path d="M0 108 H240"></path>
      </g>
      <!-- bookmark / leaf -->
      <g transform="translate(228,16)">
        <path d="M12 0 C24 14 24 40 12 54 C0 40 0 14 12 0Z" fill="url(#leafG)"></path>
        <rect width="1200" height="420" fill="none"></rect>
      </g>
    </g>

    <!-- plant sprout on journal -->
    <g transform="translate(72,36)">
      <path d="M24 90 C30 64 50 60 56 40" stroke="#2EA36F" stroke-width="4" stroke-linecap="round" fill="none"></path>
      <path d="M56 40 C48 34 40 30 32 36 C24 42 22 54 26 64 C30 74 42 82 56 82" fill="#34C07A" opacity="0.95"></path>
      <path d="M34 40 C40 34 46 32 52 36" stroke="#0E6B4D" stroke-width="1.4" fill="none" opacity="0.6"></path>
    </g>

    <!-- small globe -->
    <g transform="translate(12,110) scale(0.78)">
      <circle cx="44" cy="32" r="28" fill="#E6FBF2" stroke="#BCEEDA" stroke-width="2"></circle>
      <path d="M44 8 C56 12 64 26 60 40 C56 54 44 64 32 60 C20 56 12 42 16 28 C20 14 32 6 44 8Z" fill="#C8F7DF"></path>
      <path d="M28 32 C35 28 53 28 56 32" stroke="#1B6A4E" stroke-width="1.6" stroke-linecap="round" fill="none"></path>
    </g>
  </g>

  <!-- decorative bottom wave -->
  <g transform="translate(0,340)">
    <path d="M0 20 C150 -20 350 60 600 20 C850 -20 1050 60 1200 20 L1200 80 L0 80 Z" fill="#F6FFF8"></path>
  </g>
</svg>
